<svg version="1" xmlns="http://www.w3.org/2000/svg" width="1365.333" height="1365.333" viewBox="0 0 1024.000000 1024.000000"><path d="M422.5 1.1c-25 3.8-48.9 14.2-70.6 30.7-8.7 6.6-26.9 23.7-25.8 24.5.2.1 6.9 3.5 14.9 7.5 18.1 9 30.3 17.6 44.8 31.7 18.2 17.5 30.3 33.9 42.6 57.7 5.9 11.3 16.2 35.6 15.4 36.2-.1.1-4.9 1.4-10.6 2.9-43.6 11.2-79.5 45.1-93.7 88.3-5.3 16-8.5 35.3-8.5 50.6 0 27.7 10 62.8 28 98.8 3.3 6.6 6 12.2 6 12.4 0 .2-4.6 4.2-10.3 8.9-43.1 35.5-63.9 71.1-68.6 117.6-.6 5.7-1.1 12.7-1.1 15.7 0 4.7-.3 5.4-2.2 5.9-14.6 3.2-51 3.4-70.1.5-14.6-2.3-21.4-3.9-34.3-8.1l-9.1-3-7.4 2.7c-15.5 5.5-39.1 17.8-52.4 27.3-36.5 26-66.4 64.8-81.8 106.2-25.6 68.6-17 145.3 23.1 206.4 36.5 55.7 93.3 91.3 159.5 100 10.4 1.3 46.8 1.5 307.5 1.5 320.9 0 304.9.3 330.4-5.4 51.3-11.6 97.6-41.9 129.8-85.1 21.9-29.3 36.2-63.2 42.6-100.5 2.2-12.9 3-43.7 1.5-58.6-4.3-42.8-20.7-84.3-46.3-117.6-20.9-27.1-50.1-50.8-80.3-65.3-13.8-6.7-36.5-14.9-37.6-13.7-2.5 2.8-60 109.9-59.6 111.1.3 1.2 91.8 160.5 150.4 261.8l2.5 4.3H794.5l-17.4-33.8c-37.5-72.6-46-89.8-59.1-119.2-10.4-23.4-14-30.5-15.4-30.5-1.3 0-3.1 3.5-7.6 15-11.1 28.8-23.6 56.4-55.7 123.2l-21.8 45.2-74.9.1c-66.1 0-74.7-.2-74.2-1.5.3-.8 31.8-57 69.9-124.8 38.2-67.7 72.4-128.5 76-135.1l6.7-11.9-71.1-127.1c-39.1-69.9-71.8-128.1-72.5-129.4l-1.5-2.2 78.7.2 78.7.3 22.8 46.5c20.6 41.8 38.8 81.1 54 115.7 7.4 17.1 7.7 17 15.2-3.9 8.2-22.7 16.4-42.3 43.4-104.6l23.6-54.2h21.3c14.4 0 21.4-.3 21.4-1.1 0-2.4-9.7-24.5-17.3-39.4-23-45.1-56.3-83.3-92.6-106.2-19.6-12.3-38.6-20.8-57.6-25.8-4.9-1.3-13.5-4.6-19-7.3-9.2-4.6-23.6-10.3-29.5-11.7l-2.5-.6-.2-15.3c-1.1-78.9-34-149-88.4-187.8-10.2-7.3-29.5-17.3-39.9-20.7C471.5 1.8 465.1.8 446.5.5c-9.9-.2-20.7 0-24 .6zm40.2 321.4c-.4 26.2-2.6 56.7-4 58.2-.2.2-1.6-2.7-3-6.5-12.1-30.6-11.4-69.1 1.5-85.4l4.2-5.3.9 4c.5 2.2.6 17.9.4 35z"/><path d="M232 164.4c-27.2 7.7-47.3 39-55.4 86.6-3.5 20.7-4.1 29.8-4.1 65 0 28.6.4 38.1 1.8 49 6.1 45 17.7 75.3 35.8 92.9 14.4 14 33.4 18.3 52.3 12 29-9.8 49-50.5 55.8-113.9 1.9-17.8 1.6-67.3-.6-85.5-6.9-59-25.6-94.6-55.2-105-5.5-2-8.8-2.4-16.4-2.4-5.2 0-11.5.6-14 1.3zM25 298.2C14.9 313.7 6.3 334.5 2.3 353c-2.8 13.1-2.5 47.9.4 61.2 10.6 47 39.4 84.6 82.7 107.9 8.5 4.6 8.6 4.3 1.7-4.1-21.8-26.8-40.8-69.8-50.1-113.6-6-28.3-9.8-71.1-8.8-98.2.3-7.2.5-13.2.4-13.2-.1 0-1.7 2.4-3.6 5.2z"/></svg>